<svg xmlns="http://www.w3.org/2000/svg" width="24" height="24" viewBox="0 0 24 24">
  <g id="cancer" transform="translate(0.435)">
    <g id="Boundary" transform="translate(-0.435)" fill="#211a16" stroke="rgba(0,0,0,0)" stroke-width="1" opacity="0">
      <rect width="24" height="24" stroke="none"/>
      <rect x="0.5" y="0.5" width="23" height="23" fill="none"/>
    </g>
    <path id="Path_zodiac-cancer" data-name="Path / zodiac-cancer" d="M11.835,4C6.426,4,2,7.521,2,11.868A3.941,3.941,0,0,0,5.7,15.8h.236a3.934,3.934,0,0,0,0-7.868H5.7a8.665,8.665,0,0,1,6.137-2.36,9.132,9.132,0,0,1,4.918,1.377l1.229-1.229A11.3,11.3,0,0,0,11.835,4m-5.9,5.9a1.967,1.967,0,1,1-1.967,2.164v-.393A1.966,1.966,0,0,1,5.934,9.9M17.973,7.934h-.236a3.934,3.934,0,0,0,0,7.868h.236a8.665,8.665,0,0,1-6.137,2.36,9.132,9.132,0,0,1-4.918-1.377L5.7,18.005a11.536,11.536,0,0,0,6.137,1.731c5.409,0,9.835-3.521,9.835-7.868a3.941,3.941,0,0,0-3.7-3.934m-.236,5.9A1.967,1.967,0,1,1,19.7,11.672v.393A1.966,1.966,0,0,1,17.736,13.835Z" transform="translate(0.953 0.242)" fill="#211a16"/>
  </g>
</svg>
