<svg xmlns="http://www.w3.org/2000/svg" width="24" height="24" viewBox="0 0 24 24">
  <g id="escorpião" transform="translate(0.435)">
    <g id="Boundary" transform="translate(-0.435)" fill="#211a16" stroke="rgba(0,0,0,0)" stroke-width="1" opacity="0">
      <rect width="24" height="24" stroke="none"/>
      <rect x="0.5" y="0.5" width="23" height="23" fill="none"/>
    </g>
    <path id="Path_zodiac-scorpio" data-name="Path / zodiac-scorpio" d="M17.468,15.088l-1.4,1.4,1.279,1.269H15.786a1.967,1.967,0,0,1-1.967-1.967V5.951A2.938,2.938,0,0,0,8.9,3.767a2.948,2.948,0,0,0-3.934,0A2.923,2.923,0,0,0,3,3V4.967a.984.984,0,0,1,.984.984v9.835H5.951V5.951a.984.984,0,0,1,1.967,0v9.835H9.885V5.951a.984.984,0,0,1,1.967,0v9.835a3.934,3.934,0,0,0,3.934,3.934H17.35l-1.279,1.269,1.4,1.4,3.639-3.649Z" transform="translate(0.054 -0.889)" fill="#211a16"/>
  </g>
</svg>
