<svg xmlns="http://www.w3.org/2000/svg" width="16" height="16" viewBox="0 0 16 16">
  <path id="fullscreen" d="M168.055,10.221a.777.777,0,0,0-.235-.553.809.809,0,0,0-.563-.228h0v0a.809.809,0,0,0-.561.229l-3.735,3.651V9.229a.792.792,0,0,0-.8-.784h0a.8.8,0,0,0-.562.228.776.776,0,0,0-.234.556v6a.783.783,0,0,0,.059.284.8.8,0,0,0,.442.431.838.838,0,0,0,.29.057h6.109a.788.788,0,0,0,.784-.773.767.767,0,0,0-.223-.558.809.809,0,0,0-.567-.239h-4.171l3.736-3.649a.78.78,0,0,0,.234-.559m-.8-.41h0Zm0,0V9.538l.013.274-.013,0M177.3.487a.8.8,0,0,0-.442-.431.827.827,0,0,0-.29-.057H170.46a.789.789,0,0,0-.784.773.767.767,0,0,0,.223.558.806.806,0,0,0,.567.239h4.171L170.9,5.22a.781.781,0,0,0-.235.559.773.773,0,0,0,.236.553.8.8,0,0,0,.562.228h0v0a.81.81,0,0,0,.561-.23l3.736-3.651V6.771a.792.792,0,0,0,.8.785h0a.8.8,0,0,0,.562-.229.775.775,0,0,0,.235-.556v-6a.784.784,0,0,0-.06-.284m-5.838,5.975-.013-.273.013,0Zm0-.273Z" transform="translate(-161.361)" fill="#fff"/>
</svg>
