<svg id="leão" xmlns="http://www.w3.org/2000/svg" width="24" height="24" viewBox="0 0 24 24">
  <g id="Boundary" fill="#211a16" stroke="rgba(0,0,0,0)" stroke-width="1" opacity="0">
    <rect width="24" height="24" stroke="none"/>
    <rect x="0.5" y="0.5" width="23" height="23" fill="none"/>
  </g>
  <path id="Path_zodiac-leo" data-name="Path / zodiac-leo" d="M19.7,16.753A2.951,2.951,0,0,1,16.753,19.7,3.111,3.111,0,0,1,13.8,16.753a22.228,22.228,0,0,1,.984-4.662,22.576,22.576,0,0,0,.984-5.173A5.051,5.051,0,0,0,10.852,2,5.051,5.051,0,0,0,5.934,6.918a19.707,19.707,0,0,0,.984,4.426l.207.688a3.936,3.936,0,1,0,2.557,4.937,3.824,3.824,0,0,0,.187-1.2,20.226,20.226,0,0,0-1.072-5,18.451,18.451,0,0,1-.9-3.855,3.111,3.111,0,0,1,2.951-2.951A3.111,3.111,0,0,1,13.8,6.918a22.228,22.228,0,0,1-.984,4.662,22.576,22.576,0,0,0-.984,5.173,5.051,5.051,0,0,0,4.918,4.918,4.918,4.918,0,0,0,4.918-4.918H19.7m-13.769.984A1.967,1.967,0,1,1,7.9,15.769,1.967,1.967,0,0,1,5.934,17.736Z" transform="translate(0.003 0.111)" fill="#211a16"/>
</svg>
