<svg id="logo-personare" xmlns="http://www.w3.org/2000/svg" width="72" height="18" viewBox="0 0 72 18">
  <path id="Caminho_2240" data-name="Caminho 2240" d="M11.25,11.619a5.724,5.724,0,0,1,.4-.9,3.322,3.322,0,1,1,4.018,0,5.734,5.734,0,0,1,.4.9,4.287,4.287,0,1,0-4.812,0Z" transform="translate(-4.112 -1.682)" fill="#b31983"/>
  <path id="Caminho_2241" data-name="Caminho 2241" d="M11.426,18a3.314,3.314,0,1,1-2-3.444,5.694,5.694,0,0,1,.605-.777,4.257,4.257,0,1,0,2.377,4.1A5.456,5.456,0,0,1,11.426,18Z" transform="translate(-1.686 -6.007)" fill="#73308a"/>
  <path id="Caminho_2242" data-name="Caminho 2242" d="M19.192,13.335a4.274,4.274,0,0,0-1.9.443,5.757,5.757,0,0,1,.605.777A3.3,3.3,0,1,1,15.9,18a5.451,5.451,0,0,1-.98-.126,4.286,4.286,0,1,0,4.276-4.538Z" transform="translate(-6.547 -6.008)" fill="#f93549"/>
  <path id="Caminho_2243" data-name="Caminho 2243" d="M11.3,15.856a1.194,1.194,0,0,1,.5.111,5.759,5.759,0,0,1,.714-1.83,5.841,5.841,0,0,1,1.233-1.428,1.2,1.2,0,0,1-.482-.625c-.136.114-.269.234-.4.361a6.393,6.393,0,0,0-1.8,3.434A1.2,1.2,0,0,1,11.3,15.856Z" transform="translate(-4.857 -5.378)" fill="#ee4043"/>
  <path id="Caminho_2244" data-name="Caminho 2244" d="M22.06,11.249a6.532,6.532,0,0,0-6.752-1.523,1.181,1.181,0,0,1,.307.794c0,.013,0,.026,0,.04a5.563,5.563,0,1,1-3.644,6.287,1.179,1.179,0,0,1-.873.173,6.4,6.4,0,0,0,1.786,3.353,6.517,6.517,0,0,0,9.178,0,6.425,6.425,0,0,0,0-9.124Z" transform="translate(-4.87 -4.263)" fill="#f93549"/>
  <path id="Caminho_2245" data-name="Caminho 2245" d="M18.181,12.709a5.826,5.826,0,0,1,1.233,1.428,5.749,5.749,0,0,1,.714,1.829,1.18,1.18,0,0,1,.731-.087,6.388,6.388,0,0,0-1.8-3.434c-.127-.126-.261-.246-.4-.361A1.2,1.2,0,0,1,18.181,12.709Z" transform="translate(-7.98 -5.377)" fill="#6d2c90"/>
  <path id="Caminho_2246" data-name="Caminho 2246" d="M12.644,17.042a1.188,1.188,0,0,1-.653-.194,5.591,5.591,0,1,1-3.644-6.287c0-.014,0-.026,0-.04a1.18,1.18,0,0,1,.308-.794A6.543,6.543,0,0,0,6.49,9.361,6.467,6.467,0,0,0,1.9,11.251a6.424,6.424,0,0,0,0,9.123,6.518,6.518,0,0,0,9.178,0,6.387,6.387,0,0,0,1.786-3.353A1.194,1.194,0,0,1,12.644,17.042Z" transform="translate(0 -4.264)" fill="#73308a"/>
  <path id="Caminho_2247" data-name="Caminho 2247" d="M17.2,21.042a5.478,5.478,0,0,1-3.818,0,1.187,1.187,0,0,1-.292.718,6.576,6.576,0,0,0,4.4,0A1.2,1.2,0,0,1,17.2,21.042Z" transform="translate(-5.744 -9.343)" fill="#b3258e"/>
  <path id="Caminho_2248" data-name="Caminho 2248" d="M16.521,1.89a6.517,6.517,0,0,0-9.178,0,6.425,6.425,0,0,0,0,9.124c.117.116.238.225.361.331a1.2,1.2,0,0,1,.59-.665,5.6,5.6,0,1,1,7.275,0,1.2,1.2,0,0,1,.59.665c.124-.106.245-.215.361-.331a6.424,6.424,0,0,0,0-9.124Z" transform="translate(-2.389)" fill="#b31983"/>
  <path id="Caminho_2249" data-name="Caminho 2249" d="M11.048,19.376a1.2,1.2,0,1,1-.695-1.144,5.812,5.812,0,0,1,.244-.851,2.065,2.065,0,1,0,1.316,2.234A5.819,5.819,0,0,1,11.048,19.376Z" transform="translate(-3.414 -7.676)" fill="#73308a"/>
  <path id="Caminho_2250" data-name="Caminho 2250" d="M20.927,17.246a2.082,2.082,0,0,0-.74.136,5.813,5.813,0,0,1,.244.851,1.189,1.189,0,1,1-.7,1.144,5.865,5.865,0,0,1-.865.24,2.078,2.078,0,1,0,2.057-2.37Z" transform="translate(-8.282 -7.676)" fill="#f93549"/>
  <path id="Caminho_2251" data-name="Caminho 2251" d="M14.09,11.425a6.021,6.021,0,0,1,.637-.622,1.2,1.2,0,1,1,1.314,0,6.027,6.027,0,0,1,.637.622,2.078,2.078,0,1,0-2.589,0Z" transform="translate(-5.84 -3.444)" fill="#b31983"/>
  <path id="Caminho_2252" data-name="Caminho 2252" d="M41.868,9.3c1.918,0,3.02.943,3.02,2.591,0,1.713-1.1,2.711-3.02,2.711H40.114v2.288H38.828V9.3Zm-1.755,4.152h1.7c1.176,0,1.842-.5,1.842-1.529,0-1-.665-1.474-1.842-1.474h-1.7Z" transform="translate(-16.794 -4.16)" fill="#1f2b7d"/>
  <path id="Caminho_2253" data-name="Caminho 2253" d="M55.958,15.877H51.576a1.763,1.763,0,0,0,1.8,1.442,1.968,1.968,0,0,0,1.5-.672l.8.7a3.162,3.162,0,0,1-2.4.976,2.782,2.782,0,0,1-2.964-2.917,2.807,2.807,0,0,1,2.932-2.938C55.282,12.473,56.111,13.795,55.958,15.877Zm-1.09-.911a1.485,1.485,0,0,0-1.613-1.5,1.647,1.647,0,0,0-1.7,1.5Z" transform="translate(-21.763 -5.563)" fill="#1f2b7d"/>
  <path id="Caminho_2254" data-name="Caminho 2254" d="M63.073,13.665a2.109,2.109,0,0,1,2-1.192v1.192a1.753,1.753,0,0,0-2,1.6v3.015H61.819v-5.77h1.254Z" transform="translate(-26.755 -5.562)" fill="#1f2b7d"/>
  <path id="Caminho_2255" data-name="Caminho 2255" d="M72.372,13.037l-.591.922a2.973,2.973,0,0,0-1.536-.509c-.49,0-.849.163-.849.575,0,1.062,3.083.487,3.072,2.581,0,1.181-1.057,1.713-2.224,1.713a3.967,3.967,0,0,1-2.464-.8l.711-.889a2.819,2.819,0,0,0,1.809.715c.533,0,.948-.185.948-.618,0-1.181-3.053-.52-3.041-2.6,0-1.171,1.024-1.671,2.135-1.671A3.692,3.692,0,0,1,72.372,13.037Z" transform="translate(-29.325 -5.553)" fill="#1f2b7d"/>
  <path id="Caminho_2256" data-name="Caminho 2256" d="M94.481,14.694v3.589H93.227V15.041a1.289,1.289,0,0,0-1.4-1.4,1.621,1.621,0,0,0-1.646,1.573v3.069H88.933v-5.77h1.253V13.62a2.194,2.194,0,0,1,2.137-1.149A2.022,2.022,0,0,1,94.481,14.694Z" transform="translate(-38.47 -5.561)" fill="#1f2b7d"/>
  <path id="Caminho_2257" data-name="Caminho 2257" d="M103.945,17.579a2.354,2.354,0,0,1-1.918.759,1.832,1.832,0,0,1-2.038-1.789c0-1.052.8-1.724,2.19-1.735h1.755v-.174c0-.726-.469-1.16-1.384-1.16a2.689,2.689,0,0,0-1.579.585l-.644-.867a4.265,4.265,0,0,1,2.5-.726c1.494,0,2.333.759,2.344,2.028l.011,3.784h-1.232v-.705Zm-.011-1.586v-.269h-1.57c-.817,0-1.2.217-1.2.771,0,.52.426.856,1.122.856C103.183,17.352,103.995,16.89,103.934,15.994Z" transform="translate(-43.144 -5.563)" fill="#1f2b7d"/>
  <path id="Caminho_2258" data-name="Caminho 2258" d="M112.092,13.665a2.109,2.109,0,0,1,2.005-1.192v1.192a1.754,1.754,0,0,0-2.005,1.6v3.015h-1.253v-5.77h1.253Z" transform="translate(-47.906 -5.562)" fill="#1f2b7d"/>
  <path id="Caminho_2259" data-name="Caminho 2259" d="M122.551,15.877h-4.382a1.763,1.763,0,0,0,1.8,1.442,1.963,1.963,0,0,0,1.5-.672l.8.7a3.161,3.161,0,0,1-2.4.976A2.782,2.782,0,0,1,116.9,15.41a2.808,2.808,0,0,1,2.933-2.938C121.875,12.473,122.7,13.795,122.551,15.877Zm-1.09-.911a1.486,1.486,0,0,0-1.613-1.5,1.646,1.646,0,0,0-1.7,1.5Z" transform="translate(-50.568 -5.563)" fill="#1f2b7d"/>
  <path id="Caminho_2260" data-name="Caminho 2260" d="M79.965,18.326A2.929,2.929,0,1,1,82.99,15.4,2.981,2.981,0,0,1,79.965,18.326Zm0-4.669a1.743,1.743,0,1,0,1.8,1.742A1.773,1.773,0,0,0,79.965,13.657Z" transform="translate(-33.279 -5.562)" fill="#1f2b7d"/>
</svg>
