<svg id="loteria" xmlns="http://www.w3.org/2000/svg" width="26" height="26" viewBox="0 0 26 26">
  <path id="Caminho_1753" data-name="Caminho 1753" d="M28.5,17.668V8.77a3.561,3.561,0,0,1,2.11-3.365,3.465,3.465,0,0,1,3.992.57,3.557,3.557,0,0,1,1.2,2.852v1.54c.741,0,1.426-.057,2.11,0a3.648,3.648,0,0,1-.171,7.243c-3.023.057-6.217.057-9.24.057Z" transform="translate(-15.049 -5.014)" fill="#0c2b9c" opacity="0.44"/>
  <path id="Caminho_1754" data-name="Caminho 1754" d="M17.6,17.668V8.77a3.561,3.561,0,0,0-2.11-3.365,3.465,3.465,0,0,0-3.992.57,3.557,3.557,0,0,0-1.2,2.852v1.54c-.741,0-1.426-.057-2.11,0A3.646,3.646,0,0,0,5,14.018a3.568,3.568,0,0,0,3.308,3.593c3.023.057,6.274.057,9.3.057Z" transform="translate(-5 -5.014)" fill="#0c2b9c"/>
  <path id="Caminho_1755" data-name="Caminho 1755" d="M28.5,28.489v8.9a3.561,3.561,0,0,0,2.11,3.365,3.465,3.465,0,0,0,3.992-.57,3.557,3.557,0,0,0,1.2-2.852V35.79c.741,0,1.426.057,2.11,0a3.648,3.648,0,0,0-.171-7.243c-3.023-.114-6.217-.057-9.24-.057Z" transform="translate(-15.049 -15.143)" fill="#0c2b9c"/>
  <path id="Caminho_1756" data-name="Caminho 1756" d="M17.6,28.489v8.9a3.561,3.561,0,0,1-2.11,3.365,3.465,3.465,0,0,1-3.992-.57,3.557,3.557,0,0,1-1.2-2.852V35.79c-.741,0-1.426.057-2.11,0A3.646,3.646,0,0,1,5,32.14a3.568,3.568,0,0,1,3.308-3.593c3.023-.114,6.274-.057,9.3-.057Z" transform="translate(-5 -15.143)" fill="#0c2b9c" opacity="0.44"/>
</svg>
