<svg xmlns="http://www.w3.org/2000/svg" width="18" height="20" viewBox="0 0 18 20">
  <path id="notificações" d="M206.2,22.246a5.017,5.017,0,0,1-3.413-1.347.824.824,0,0,1-.067-1.125.738.738,0,0,1,1.074-.07,3.519,3.519,0,0,0,4.81,0,.738.738,0,0,1,1.075.07.823.823,0,0,1-.068,1.125,5.016,5.016,0,0,1-3.411,1.347m6.468-4.563q-.382,0-.763-.031H200.49a9.377,9.377,0,0,1-2.433-.119.708.708,0,0,1-.224-.079,1.245,1.245,0,0,1-.635-1.1.839.839,0,0,1,.045-.266,14.381,14.381,0,0,1,1.244-2.692A10.526,10.526,0,0,0,199.51,8.6a6.163,6.163,0,0,1,2-4.524,6.925,6.925,0,0,1,3.924-1.77,4.723,4.723,0,0,1,1.522,0,6.926,6.926,0,0,1,3.927,1.773,6.141,6.141,0,0,1,2,4.492,10.574,10.574,0,0,0,1.024,4.819,14.348,14.348,0,0,1,1.245,2.692.838.838,0,0,1,.044.266,1.244,1.244,0,0,1-.633,1.1.715.715,0,0,1-.225.08,9.3,9.3,0,0,1-1.67.15m-12.212-1.625h11.48c.021,0,.041,0,.061,0a7.886,7.886,0,0,0,1.507-.016,12.6,12.6,0,0,0-.907-1.836c-.012-.021-.024-.042-.034-.063a12.194,12.194,0,0,1-1.2-5.583,4.5,4.5,0,0,0-1.471-3.275A5.505,5.505,0,0,0,206.2,3.865h-.014a5.577,5.577,0,0,0-3.683,1.422,4.517,4.517,0,0,0-1.474,3.305,12.155,12.155,0,0,1-1.2,5.553c-.011.022-.022.043-.035.064a12.666,12.666,0,0,0-.906,1.836,7.829,7.829,0,0,0,1.507.016c.021,0,.041,0,.062,0" transform="translate(-197.199 -2.246)"/>
</svg>
