<svg xmlns="http://www.w3.org/2000/svg" width="19" height="24" viewBox="0 0 19 24">
  <path id="podcasts" d="M36.751,15.6a4.78,4.78,0,0,0,4.75-4.8v-6a4.75,4.75,0,1,0-9.5,0v6a4.78,4.78,0,0,0,4.75,4.8M34.376,4.8a2.375,2.375,0,1,1,4.75,0H37.938a1.2,1.2,0,0,0,0,2.4h1.188V8.4H37.938a1.2,1.2,0,0,0,0,2.4h1.188a2.375,2.375,0,1,1-4.75,0ZM46.251,8.4v2.4a9.582,9.582,0,0,1-8.312,9.526V21.6H41.5a1.2,1.2,0,0,1,0,2.4H32a1.2,1.2,0,0,1,0-2.4h3.563V20.326A9.582,9.582,0,0,1,27.251,10.8V8.4a1.188,1.188,0,1,1,2.375,0v2.4a7.125,7.125,0,1,0,14.25,0V8.4a1.188,1.188,0,1,1,2.375,0" transform="translate(-27.251)" fill="#211a16"/>
</svg>
