<svg xmlns="http://www.w3.org/2000/svg" width="18" height="16" viewBox="0 0 18 16">
  <path id="som_desligado" data-name="som desligado" d="M36.6,7.669V.8A.8.8,0,0,0,35.187.286l-1.679,2a.8.8,0,1,0,1.225,1.03L35,3V6.069L29.166.235a.8.8,0,0,0-1.131,1.131L31.469,4.8H27.8a.8.8,0,0,0-.8.8v5.6a.8.8,0,0,0,.8.8h3.669l3.766,3.765A.8.8,0,0,0,36.6,15.2V9.932l3.616,3.616A3.333,3.333,0,0,1,38.59,14a.8.8,0,0,0,.01,1.6h.01a4.926,4.926,0,0,0,2.765-.894l1.059,1.06a.8.8,0,1,0,1.131-1.131Zm-1.6,5.6-2.634-2.634A.8.8,0,0,0,31.8,10.4H28.6v-4h4a.777.777,0,0,0,.368-.1L35,8.332ZM45,7.841a7.624,7.624,0,0,1-.983,3.753.8.8,0,0,1-1.394-.787A6.005,6.005,0,0,0,43.4,7.842c0-3-2.153-5.441-4.8-5.441a.8.8,0,1,1,0-1.6C42.129.8,45,3.958,45,7.841M40.1,8.5a1.35,1.35,0,0,0,.1-.554,1.522,1.522,0,0,0-.445-1.1,1.468,1.468,0,0,0-1.1-.446.825.825,0,0,1-.828-.777.777.777,0,0,1,.749-.822l.1,0A3.121,3.121,0,0,1,41.8,7.921,2.908,2.908,0,0,1,41.582,9.1a.8.8,0,0,1-.741.5.811.811,0,0,1-.3-.059A.8.8,0,0,1,40.1,8.5" transform="translate(-27 0)" fill="#fff"/>
</svg>
