<svg xmlns="http://www.w3.org/2000/svg" width="24" height="24" viewBox="0 0 24 24">
  <g id="virgem" transform="translate(-0.102)">
    <g id="Boundary" transform="translate(0.102)" fill="#211a16" stroke="rgba(0,0,0,0)" stroke-width="1" opacity="0">
      <rect width="24" height="24" stroke="none"/>
      <rect x="0.5" y="0.5" width="23" height="23" fill="none"/>
    </g>
    <path id="Path_zodiac-virgo" data-name="Path / zodiac-virgo" d="M18.786,18.864c1.528-1.338,1.528-3.885,1.528-5.046A4.006,4.006,0,0,0,16.24,9.885a4.1,4.1,0,0,0-2.037.551V5.951A3,3,0,0,0,11.148,3a3.119,3.119,0,0,0-2.037.767,3.133,3.133,0,0,0-4.074,0A3.088,3.088,0,0,0,3,3V4.967a1,1,0,0,1,1.018.984v9.835H6.055V5.951a1.019,1.019,0,0,1,2.037,0v9.835h2.037V5.951a1.019,1.019,0,0,1,2.037,0v7.868c0,1.161,0,3.708,1.528,5.046a9.107,9.107,0,0,1-2.546.856v1.967c1.314,0,3.911-1.239,5.092-1.839,1.181.6,3.778,1.839,5.092,1.839V19.72a9.107,9.107,0,0,1-2.546-.856M16.24,11.852a2,2,0,0,1,2.037,1.967c0,2.872-.55,3.934-2.037,3.934S14.2,16.691,14.2,13.819A2,2,0,0,1,16.24,11.852Z" transform="translate(0.082 0.094)" fill="#211a16"/>
  </g>
</svg>
