<svg xmlns="http://www.w3.org/2000/svg" width="24" height="21" viewBox="0 0 24 21">
  <path id="vídeos" d="M21.6,15.238v2.87l-2.68-1.68,2.68-1.435Zm-7.2,4.2a1.2,1.2,0,0,1-1.2,1.2H3.6a1.2,1.2,0,0,1-1.2-1.2V13.465a1.2,1.2,0,0,1,1.2-1.2h9.6a1.2,1.2,0,0,1,1.2,1.2ZM4.936,6.85a1.2,1.2,0,1,1-1.2,1.237V8.051A1.2,1.2,0,0,1,4.936,6.85Zm6-2.4a2.444,2.444,0,0,1,2.545,2.332,2.474,2.474,0,0,1-4.944.142c0-.023,0-.048,0-.071a2.4,2.4,0,0,1,2.4-2.4Zm11.232,7.128L16.8,14.923V11.656A2.311,2.311,0,0,0,14.946,9.3a4.815,4.815,0,0,0,.74-2.45,4.784,4.784,0,0,0-4.768-4.807h-.007A4.763,4.763,0,0,0,6.565,4.866a3.515,3.515,0,0,0-1.636-.42,3.6,3.6,0,0,0-3.6,3.595v.01A3.51,3.51,0,0,0,1.52,9.463,2.5,2.5,0,0,0,0,11.656v8.377c0,1.329,1.274,3.01,2.6,3.01h12c1.32,0,2.2-1.68,2.2-3.01V17.944l5.364,3.349a1.22,1.22,0,0,0,1.654-.371A1.139,1.139,0,0,0,24,20.277V12.589A1.182,1.182,0,0,0,22.827,11.4a1.232,1.232,0,0,0-.664.177Z" transform="translate(0 -2.043)" fill="#211a16" fill-rule="evenodd"/>
</svg>
